<svg width="49" height="10" viewBox="0 0 49 10" fill="none" xmlns="http://www.w3.org/2000/svg">
<path d="M46.1198 5.88C46.3598 6.064 46.6118 6.292 46.8758 6.564C47.1478 6.836 47.4118 7.132 47.6678 7.452C47.9318 7.764 48.1798 8.084 48.4118 8.412C48.6438 8.732 48.8398 9.032 48.9998 9.312H47.6918C47.5238 9.032 47.3278 8.748 47.1038 8.46C46.8878 8.164 46.6598 7.884 46.4198 7.62C46.1798 7.348 45.9358 7.1 45.6878 6.876C45.4398 6.652 45.2038 6.464 44.9798 6.312V9.312H43.8638V0.192L44.9798 0V5.688C45.1718 5.496 45.3838 5.284 45.6158 5.052C45.8478 4.82 46.0758 4.584 46.2998 4.344C46.5238 4.104 46.7358 3.876 46.9358 3.66C47.1358 3.436 47.3078 3.24 47.4518 3.072H48.7598C48.5758 3.272 48.3758 3.492 48.1598 3.732C47.9438 3.972 47.7198 4.216 47.4878 4.464C47.2558 4.704 47.0198 4.948 46.7798 5.196C46.5478 5.436 46.3278 5.664 46.1198 5.88Z" fill="black"/>
<path d="M39.9604 8.50799C40.4164 8.50799 40.7524 8.44799 40.9684 8.32799C41.1924 8.20799 41.3044 8.01599 41.3044 7.75199C41.3044 7.47999 41.1964 7.26399 40.9804 7.10399C40.7644 6.94399 40.4084 6.76399 39.9124 6.56399C39.6724 6.46799 39.4404 6.37199 39.2164 6.27599C39.0004 6.17199 38.8124 6.05199 38.6524 5.91599C38.4924 5.77999 38.3644 5.61599 38.2684 5.42399C38.1724 5.23199 38.1244 4.99599 38.1244 4.71599C38.1244 4.16399 38.3284 3.72799 38.7364 3.40799C39.1444 3.07999 39.7004 2.91599 40.4044 2.91599C40.5804 2.91599 40.7564 2.92799 40.9324 2.95199C41.1084 2.96799 41.2724 2.99199 41.4244 3.02399C41.5764 3.04799 41.7084 3.07599 41.8204 3.10799C41.9404 3.13999 42.0324 3.16799 42.0964 3.19199L41.8924 4.15199C41.7724 4.08799 41.5844 4.02399 41.3284 3.95999C41.0724 3.88799 40.7644 3.85199 40.4044 3.85199C40.0924 3.85199 39.8204 3.91599 39.5884 4.04399C39.3564 4.16399 39.2404 4.35599 39.2404 4.61999C39.2404 4.75599 39.2644 4.87599 39.3124 4.97999C39.3684 5.08399 39.4484 5.17999 39.5524 5.26799C39.6644 5.34799 39.8004 5.42399 39.9604 5.49599C40.1204 5.56799 40.3124 5.64399 40.5364 5.72399C40.8324 5.83599 41.0964 5.94799 41.3284 6.05999C41.5604 6.16399 41.7564 6.28799 41.9164 6.43199C42.0844 6.57599 42.2124 6.75199 42.3004 6.95999C42.3884 7.15999 42.4324 7.40799 42.4324 7.70399C42.4324 8.27999 42.2164 8.71599 41.7844 9.01199C41.3604 9.30799 40.7524 9.45599 39.9604 9.45599C39.4084 9.45599 38.9764 9.40799 38.6644 9.31199C38.3524 9.22399 38.1404 9.15599 38.0284 9.10799L38.2324 8.14799C38.3604 8.19599 38.5644 8.26799 38.8444 8.36399C39.1244 8.45999 39.4964 8.50799 39.9604 8.50799Z" fill="black"/>
<path d="M31.4572 6.20399C31.4572 5.65199 31.5373 5.17199 31.6973 4.76399C31.8573 4.34799 32.0692 4.00399 32.3332 3.73199C32.5972 3.45999 32.9013 3.25599 33.2453 3.11999C33.5893 2.98399 33.9413 2.91599 34.3013 2.91599C35.1413 2.91599 35.7852 3.17999 36.2332 3.70799C36.6812 4.22799 36.9053 5.02399 36.9053 6.09599C36.9053 6.14399 36.9053 6.20799 36.9053 6.28799C36.9053 6.35999 36.9012 6.42799 36.8932 6.49199H32.6213C32.6693 7.13999 32.8572 7.63199 33.1852 7.96799C33.5132 8.30399 34.0252 8.47199 34.7212 8.47199C35.1132 8.47199 35.4412 8.43999 35.7052 8.37599C35.9772 8.30399 36.1812 8.23599 36.3172 8.17199L36.4732 9.10799C36.3372 9.17999 36.0973 9.25599 35.7533 9.33599C35.4173 9.41599 35.0332 9.45599 34.6012 9.45599C34.0572 9.45599 33.5852 9.37599 33.1852 9.21599C32.7932 9.04799 32.4692 8.81999 32.2132 8.53199C31.9572 8.24399 31.7652 7.90399 31.6372 7.51199C31.5172 7.11199 31.4572 6.67599 31.4572 6.20399ZM35.7412 5.59199C35.7492 5.08799 35.6213 4.67599 35.3573 4.35599C35.1013 4.02799 34.7452 3.86399 34.2892 3.86399C34.0332 3.86399 33.8052 3.91599 33.6052 4.01999C33.4132 4.11599 33.2493 4.24399 33.1133 4.40399C32.9773 4.56399 32.8692 4.74799 32.7892 4.95599C32.7172 5.16399 32.6692 5.37599 32.6452 5.59199H35.7412Z" fill="black"/>
<path d="M28.7708 4.392C28.6348 4.28 28.4388 4.172 28.1828 4.068C27.9268 3.964 27.6468 3.912 27.3428 3.912C27.0228 3.912 26.7468 3.972 26.5148 4.092C26.2908 4.204 26.1068 4.364 25.9628 4.572C25.8188 4.772 25.7148 5.012 25.6508 5.292C25.5868 5.572 25.5548 5.872 25.5548 6.192C25.5548 6.92 25.7348 7.484 26.0948 7.884C26.4548 8.276 26.9348 8.472 27.5348 8.472C27.8388 8.472 28.0908 8.46 28.2908 8.436C28.4988 8.404 28.6588 8.372 28.7708 8.34V4.392ZM28.7708 0.192L29.8868 0V9.132C29.6308 9.204 29.3028 9.276 28.9028 9.348C28.5028 9.42 28.0428 9.456 27.5228 9.456C27.0428 9.456 26.6108 9.38 26.2268 9.228C25.8428 9.076 25.5148 8.86 25.2428 8.58C24.9708 8.3 24.7588 7.96 24.6068 7.56C24.4628 7.152 24.3908 6.696 24.3908 6.192C24.3908 5.712 24.4508 5.272 24.5708 4.872C24.6988 4.472 24.8828 4.128 25.1228 3.84C25.3628 3.552 25.6548 3.328 25.9988 3.168C26.3508 3.008 26.7508 2.928 27.1988 2.928C27.5588 2.928 27.8748 2.976 28.1468 3.072C28.4268 3.168 28.6348 3.26 28.7708 3.348V0.192Z" fill="black"/>
<path d="M17.6877 6.20399C17.6877 5.65199 17.7677 5.17199 17.9277 4.76399C18.0877 4.34799 18.2997 4.00399 18.5637 3.73199C18.8277 3.45999 19.1317 3.25599 19.4757 3.11999C19.8197 2.98399 20.1717 2.91599 20.5317 2.91599C21.3717 2.91599 22.0157 3.17999 22.4637 3.70799C22.9117 4.22799 23.1357 5.02399 23.1357 6.09599C23.1357 6.14399 23.1357 6.20799 23.1357 6.28799C23.1357 6.35999 23.1317 6.42799 23.1237 6.49199H18.8517C18.8997 7.13999 19.0877 7.63199 19.4157 7.96799C19.7437 8.30399 20.2557 8.47199 20.9517 8.47199C21.3437 8.47199 21.6717 8.43999 21.9357 8.37599C22.2077 8.30399 22.4117 8.23599 22.5477 8.17199L22.7037 9.10799C22.5677 9.17999 22.3277 9.25599 21.9837 9.33599C21.6477 9.41599 21.2637 9.45599 20.8317 9.45599C20.2877 9.45599 19.8157 9.37599 19.4157 9.21599C19.0237 9.04799 18.6997 8.81999 18.4437 8.53199C18.1877 8.24399 17.9957 7.90399 17.8677 7.51199C17.7477 7.11199 17.6877 6.67599 17.6877 6.20399ZM21.9717 5.59199C21.9797 5.08799 21.8517 4.67599 21.5877 4.35599C21.3317 4.02799 20.9757 3.86399 20.5197 3.86399C20.2637 3.86399 20.0357 3.91599 19.8357 4.01999C19.6437 4.11599 19.4797 4.24399 19.3437 4.40399C19.2077 4.56399 19.0997 4.74799 19.0197 4.95599C18.9477 5.16399 18.8997 5.37599 18.8757 5.59199H21.9717Z" fill="black"/>
<path d="M15.7108 2.93999C15.8068 2.93999 15.9148 2.94799 16.0348 2.96399C16.1628 2.97199 16.2868 2.988 16.4068 3.01199C16.5268 3.028 16.6348 3.04799 16.7308 3.07199C16.8348 3.08799 16.9108 3.10399 16.9588 3.11999L16.7668 4.09199C16.6788 4.05999 16.5308 4.02399 16.3228 3.98399C16.1228 3.93599 15.8628 3.91199 15.5428 3.91199C15.3348 3.91199 15.1268 3.93599 14.9188 3.98399C14.7188 4.02399 14.5868 4.052 14.5228 4.068V9.31199H13.4068V3.33599C13.6708 3.23999 13.9988 3.15199 14.3908 3.07199C14.7828 2.98399 15.2228 2.93999 15.7108 2.93999Z" fill="black"/>
<path d="M7.4564 3.348C7.5924 3.26 7.7964 3.168 8.0684 3.072C8.3484 2.976 8.66841 2.928 9.02841 2.928C9.47641 2.928 9.8724 3.008 10.2164 3.168C10.5684 3.328 10.8644 3.552 11.1044 3.84C11.3444 4.128 11.5244 4.472 11.6444 4.872C11.7724 5.272 11.8364 5.712 11.8364 6.192C11.8364 6.696 11.7604 7.152 11.6084 7.56C11.4644 7.96 11.2564 8.3 10.9844 8.58C10.7124 8.86 10.3844 9.076 10.0004 9.228C9.6164 9.38 9.1844 9.456 8.7044 9.456C8.1844 9.456 7.7244 9.42 7.3244 9.348C6.9244 9.276 6.5964 9.204 6.3404 9.132V0.192L7.4564 0V3.348ZM7.4564 8.34C7.5684 8.372 7.72441 8.404 7.92441 8.436C8.13241 8.46 8.3884 8.472 8.6924 8.472C9.2924 8.472 9.77241 8.276 10.1324 7.884C10.4924 7.484 10.6724 6.92 10.6724 6.192C10.6724 5.872 10.6404 5.572 10.5764 5.292C10.5124 5.012 10.4084 4.772 10.2644 4.572C10.1204 4.364 9.9324 4.204 9.7004 4.092C9.4764 3.972 9.20441 3.912 8.88441 3.912C8.5804 3.912 8.3004 3.964 8.0444 4.068C7.7884 4.172 7.5924 4.28 7.4564 4.392V8.34Z" fill="black"/>
<path d="M4.42125 9.312H3.30525V3.072H4.42125V9.312ZM3.85725 1.944C3.65725 1.944 3.48525 1.88 3.34125 1.752C3.20525 1.616 3.13725 1.436 3.13725 1.212C3.13725 0.987996 3.20525 0.811996 3.34125 0.683996C3.48525 0.547996 3.65725 0.479996 3.85725 0.479996C4.05725 0.479996 4.22525 0.547996 4.36125 0.683996C4.50525 0.811996 4.57725 0.987996 4.57725 1.212C4.57725 1.436 4.50525 1.616 4.36125 1.752C4.22525 1.88 4.05725 1.944 3.85725 1.944Z" fill="black"/>
<path d="M1.896 9.432C1.208 9.416 0.72 9.268 0.432 8.988C0.144 8.708 0 8.272 0 7.68V0.192L1.116 0V7.5C1.116 7.684 1.132 7.836 1.164 7.956C1.196 8.076 1.248 8.172 1.32 8.244C1.392 8.316 1.488 8.372 1.608 8.412C1.728 8.444 1.876 8.472 2.052 8.496L1.896 9.432Z" fill="black"/>
</svg>
